<svg width="10mm" height="10mm" viewBox="0 0 10 10" xmlns="http://www.w3.org/2000/svg">
    <rect style="fill:#546fce;fill-opacity:1;stroke:none;stroke-width:0;stroke-linecap:round;stroke-linejoin:round;paint-order:markers fill stroke;stop-color:#000" width="10" height="10" ry="3.37" />
    <path d="M7.07 5.934q0 1.1-.456 1.691-.454.591-1.281.591-.682 0-1.1-.541l-.058.459H2.927v-6.35H4.32V4.02q.389-.442 1.005-.442.835 0 1.29.6.454.599.454 1.686zm-1.398-.087q0-.644-.174-.917-.17-.277-.525-.277-.471 0-.653.36V6.79q.178.356.661.356.492 0 .625-.48.066-.236.066-.819z" aria-label="b" style="font-weight:900;font-size:8.46667px;line-height:1.25;font-family:Roboto;-inkscape-font-specification:'Roboto, Heavy';letter-spacing:0;word-spacing:0;fill:#fff;stroke-width:0" />
</svg>