<svg version="1.0" xmlns="http://www.w3.org/2000/svg" width="933.333" height="933.333" viewBox="0 0 700 700"><path d="M220.5.7C179.3 4 139.6 17.1 108 37.8 45.9 78.4 7.5 142.7 1 217-.3 232.4-.3 467.6 1 483c4.9 56.1 27.1 105.2 65.5 144.9 36.8 38 80.4 60.3 136.5 69.7 9.6 1.6 21.8 1.8 138 2.2 132.2.3 143.2.1 164.7-3.8 49-8.9 89.6-30.1 124.9-65.4 31.2-31.3 51.4-66.7 61.9-108.5 7.3-29.1 7.5-34 7.5-172.1 0-138.5-.2-143-7.6-172.5-10.4-41.4-30.6-76.8-61.8-108.1C590.2 28.9 540.9 6.1 483 1 472.7.1 231.3-.2 220.5.7zM303 202.6v77.6l6.4-5.9c19.7-18.5 45.7-26.5 76.3-23.4 57.8 5.8 94.3 44.8 105.7 112.6 3.8 22.8 4.6 66.3 1.6 89-9.5 71.9-44.3 113.9-100.7 121.5-14.4 2-35.6.9-46.7-2.4-17-5.1-31.3-14-43-26.7l-6.3-7-1.9 15.8-1.9 15.8-43.7.3-43.8.2V125h98v77.6z"/><path d="M333.4 327.5c-11.1 2.4-21 8.8-27.6 17.9l-2.8 3.9v127.4l2.8 3.9c7.1 9.7 18.2 16.4 30.2 18.3 19.4 3.1 35.3-1 45-11.6 12-13.1 15.4-29.2 15.4-73.8 0-20.2-.4-29.5-1.6-37-5.8-35.5-20.3-50.7-48.1-50.4-4 0-9.9.7-13.3 1.4z"/></svg>